<?xml version="1.0"?>
<svg xmlns="http://www.w3.org/2000/svg" xmlns:xlink="http://www.w3.org/1999/xlink" version="1.1" id="Capa_1" x="0px" y="0px" viewBox="0 0 449.306 449.306" style="enable-background:new 0 0 449.306 449.306;" xml:space="preserve" width="512px" height="512px"><g><g>
	<g>
		<g>
			<path d="M160.914,98.834l53.29-53.812v192.784c0,5.771,4.678,10.449,10.449,10.449s10.449-4.678,10.449-10.449V45.021     l53.29,53.812c4.247,3.503,10.382,3.503,14.629,0c4.047-4.24,4.047-10.911,0-15.151l-71.053-71.576     c-4.165-3.725-10.464-3.725-14.629,0l-71.053,71.576c-4.047,4.24-4.047,10.911,0,15.151     C150.45,102.559,156.749,102.559,160.914,98.834z" data-original="#000000" class="active-path" data-old_color="#000000" fill="#FFFFFF"/>
			<path d="M447.739,255.568l-58.514-127.478c-1.766-3.953-5.603-6.578-9.927-6.792h-50.155c-5.771,0-10.449,4.678-10.449,10.449     s4.678,10.449,10.449,10.449h43.363l48.588,109.714h-59.559c-27.004-0.133-51.563,15.625-62.694,40.229     c-8.062,16.923-25.141,27.698-43.886,27.69h-60.604c-18.745,0.008-35.823-10.767-43.886-27.69     c-11.131-24.604-35.69-40.362-62.694-40.229H29.257l57.469-109.714h33.437c5.771,0,10.449-4.678,10.449-10.449     s-4.678-10.449-10.449-10.449H80.457c-4.017,0.298-7.584,2.676-9.404,6.269L2.09,254.523c-1.139,1.53-1.859,3.331-2.09,5.224     V390.36c0,28.735,25.078,49.633,53.812,49.633h341.682c28.735,0,53.812-20.898,53.812-49.633V259.748     C448.931,258.304,448.405,256.903,447.739,255.568z" data-original="#000000" class="active-path" data-old_color="#000000" fill="#FFFFFF"/>
		</g>
	</g>
</g></g> </svg>
