<svg height="512pt" viewBox="0 0 512 512" width="512pt" xmlns="http://www.w3.org/2000/svg"><path d="m256 0c-140.960938 0-256 115.050781-256 256 0 140.957031 115.050781 256 256 256 140.957031 0 256-115.050781 256-256 0-140.960938-115.050781-256-256-256zm0 482c-124.617188 0-226-101.382812-226-226s101.382812-226 226-226 226 101.382812 226 226-101.382812 226-226 226zm0 0"/><path d="m256 61c-107.523438 0-195 87.476562-195 195s87.476562 195 195 195 195-87.476562 195-195-87.476562-195-195-195zm0 360c-90.980469 0-165-74.019531-165-165s74.019531-165 165-165 165 74.019531 165 165-74.019531 165-165 165zm0 0"/><path d="m271 182.074219v-31.074219h-30v31.074219c-50.816406 7.304687-90 51.121093-90 103.925781v45h30v-45c0-36.21875 25.808594-66.523438 60-73.492188v88.492188h30v-88.492188c34.191406 6.96875 60 37.273438 60 73.492188v45h30v-45c0-52.804688-39.183594-96.621094-90-103.925781zm0 0"/></svg>