<?xml version="1.0"?>
<svg xmlns="http://www.w3.org/2000/svg" xmlns:xlink="http://www.w3.org/1999/xlink" version="1.1" id="Capa_1" x="0px" y="0px" viewBox="0 0 512 512" style="enable-background:new 0 0 512 512;" xml:space="preserve" width="512px" height="512px"><g><g>
	<g>
		<path d="M472.615,43.979H39.385C17.303,43.979,0,61.282,0,83.364v345.272c0,22.082,17.303,39.385,39.385,39.385h433.231    c22.082,0,39.385-17.303,39.385-39.385V83.364C512,61.282,494.697,43.979,472.615,43.979z M472.615,428.636H39.385L39.083,83.39    c0,0,0.092-0.026,0.302-0.026h433.231V428.636z" data-original="#000000" class="active-path" data-old_color="#000000" fill="#FFFFFF"/>
	</g>
</g><g>
	<g>
		<path d="M195.669,169.255c-6.643-8.028-18.406-9.472-26.821-3.302L8.028,284.107l23.322,31.744l145.854-107.159l207.393,250.23    l30.313-25.134L195.669,169.255z" data-original="#000000" class="active-path" data-old_color="#000000" fill="#FFFFFF"/>
	</g>
</g><g>
	<g>
		<path d="M385.057,186.736c-7.175-5.678-17.31-5.658-24.478,0.033l-93.21,74.174l24.523,30.818l80.988-64.446l107.211,84.828    l24.432-30.884L385.057,186.736z" data-original="#000000" class="active-path" data-old_color="#000000" fill="#FFFFFF"/>
	</g>
</g></g> </svg>
