<?xml version="1.0"?>
<svg xmlns="http://www.w3.org/2000/svg" xmlns:xlink="http://www.w3.org/1999/xlink" version="1.1" id="Capa_1" x="0px" y="0px" viewBox="0 0 512.004 512.004" style="enable-background:new 0 0 512.004 512.004;" xml:space="preserve" width="512px" height="512px"><g><g>
	<g>
		<path d="M509.585,249.996l-174.481-179.2c-3.208-3.302-9.02-3.302-12.228,0l-47.386,48.666c-3.234,3.319-3.226,8.619,0.017,11.93    l80.307,81.894H8.533c-4.71,0-8.533,3.823-8.533,8.533v68.267c0,4.71,3.823,8.533,8.533,8.533h347.281l-80.307,81.894    c-3.243,3.311-3.251,8.61-0.017,11.93l47.386,48.666c1.604,1.647,3.806,2.577,6.11,2.577c2.304,0,4.506-0.93,6.118-2.577    l174.481-179.2C512.811,258.589,512.811,253.307,509.585,249.996z" data-original="#000000" class="active-path" data-old_color="#000000" fill="#DC3545"/>
	</g>
</g></g> </svg>
