<?xml version="1.0"?>
<svg xmlns="http://www.w3.org/2000/svg" xmlns:xlink="http://www.w3.org/1999/xlink" version="1.1" id="Capa_1" x="0px" y="0px" viewBox="0 0 512.004 512.004" style="enable-background:new 0 0 512.004 512.004;" xml:space="preserve" width="512px" height="512px" class="hovered-paths"><g><g>
	<g>
		<path d="M480.002,128.004H10.669c-5.888,0-10.667,4.757-10.667,10.667c0,5.909,4.779,10.667,10.667,10.667h469.333    c5.888,0,10.667-4.779,10.667-10.667S485.89,128.004,480.002,128.004z" data-original="#000000" class="hovered-path active-path" data-old_color="#000000" fill="#FFFFFF"/>
	</g>
</g><g>
	<g>
		<path d="M229.911,1.796c-4.928-3.264-11.541-1.941-14.784,2.965l-85.333,128c-3.264,4.907-1.941,11.52,2.965,14.784    c1.813,1.216,3.861,1.792,5.909,1.792c3.435,0,6.827-1.664,8.875-4.757l85.333-128C236.14,11.673,234.818,5.06,229.911,1.796z" data-original="#000000" class="hovered-path active-path" data-old_color="#000000" fill="#FFFFFF"/>
	</g>
</g><g>
	<g>
		<path d="M360.855,132.761l-85.333-128c-3.264-4.928-9.877-6.229-14.784-2.965c-4.907,3.264-6.229,9.877-2.965,14.784l85.333,128    c2.069,3.093,5.44,4.757,8.896,4.757c2.048,0,4.096-0.576,5.888-1.792C362.797,144.281,364.119,137.668,360.855,132.761z" data-original="#000000" class="hovered-path active-path" data-old_color="#000000" fill="#FFFFFF"/>
	</g>
</g><g>
	<g>
		<path d="M467.138,132.185c-2.005-2.624-5.141-4.181-8.469-4.181H32.002c-3.328,0-6.464,1.557-8.469,4.181    c-2.027,2.645-2.688,6.101-1.813,9.28l55.424,203.221c6.315,23.168,27.456,39.317,51.435,39.317h118.464    c5.312,0,9.792-3.904,10.56-9.152c11.179-77.845,86.208-134.208,168.448-115.115c5.589,1.365,11.2-2.048,12.715-7.573    l30.187-110.677C469.826,138.286,469.165,134.83,467.138,132.185z" data-original="#000000" class="hovered-path active-path" data-old_color="#000000" fill="#FFFFFF"/>
	</g>
</g><g>
	<g>
		<path d="M394.669,277.337c-64.704,0-117.333,52.629-117.333,117.333s52.629,117.333,117.333,117.333    s117.333-52.629,117.333-117.333S459.373,277.337,394.669,277.337z M466.221,359.534l-85.333,85.333    c-2.091,2.091-4.821,3.136-7.552,3.136c-2.731,0-5.461-1.045-7.552-3.115l-42.667-42.667c-4.16-4.16-4.16-10.923,0-15.083    c4.16-4.16,10.923-4.16,15.083,0l35.115,35.115l77.781-77.781c4.16-4.16,10.923-4.16,15.083,0    C470.338,348.633,470.38,355.374,466.221,359.534z" data-original="#000000" class="hovered-path active-path" data-old_color="#000000" fill="#FFFFFF"/>
	</g>
</g></g> </svg>
