<?xml version="1.0"?>
<svg xmlns="http://www.w3.org/2000/svg" id="bold" enable-background="new 41.64 164.945 512 512" height="512px" viewBox="41.64 164.945 512 512" width="512px" class=""><g><g><path d="m530.908 675.419c-5.429 0-10.857-2.078-14.992-6.213l-156.629-156.629c-8.292-8.291-8.292-21.693 0-29.985 8.291-8.292 21.693-8.292 29.986 0l156.628 156.628c8.291 8.292 8.291 21.694 0 29.986-4.136 4.135-9.565 6.213-14.993 6.213z" data-original="#000000" class="active-path" data-old_color="#000000" fill="#FFFFFF"/><path d="m244.625 166.472c-111.121 0-201.458 90.338-201.458 201.458s90.338 201.459 201.458 201.459 201.458-90.339 201.458-201.459-90.337-201.458-201.458-201.458zm0 307.489c-65.103 0-124.48-40.292-147.383-100.305-1.484-3.605-1.484-7.846 0-11.451 22.902-60.013 82.28-100.305 147.383-100.305 65.104 0 124.48 40.292 147.383 100.305 1.484 3.605 1.484 7.846 0 11.451-22.902 60.013-82.279 100.305-147.383 100.305zm0-159.046c-29.265 0-53.016 23.75-53.016 53.015s23.751 53.016 53.016 53.016c29.264 0 53.015-23.75 53.015-53.016.001-29.265-23.75-53.015-53.015-53.015z" data-original="#000000" class="active-path" data-old_color="#000000" fill="#FFFFFF"/></g></g> </svg>
